<svg display="none"
   xmlns="http://www.w3.org/2000/svg">

   <symbol id="arrow-ico" width="58" height="59" viewBox="0 0 58 59" fill="none"
      xmlns="http://www.w3.org/2000/svg">
      <g clip-path="url(#clip0_17:237)" filter="url(#filter0_d_17:237)">
         <rect x="4" y="0.724121" width="50" height="50" rx="19" fill="#02897A"/>
         <path d="M33.1161 27.3223L23.9732 18.1795C23.8661 18.0634 23.7232 18.0098 23.5714 18.0098C23.5 18.0098 23.4196 18.0277 23.3571 18.0545C23.1429 18.1438 23 18.3491 23 18.5813V32.0098C23 32.242 23.1429 32.4473 23.3571 32.5366C23.4196 32.5634 23.5 32.5813 23.5714 32.5813C23.7232 32.5813 23.8661 32.5188 23.9732 32.4116L26.7589 29.6259L28.4643 33.6616C28.5893 33.9473 28.9196 34.0902 29.2143 33.9652L30.7946 33.2955C31.0804 33.1705 31.2232 32.8402 31.0982 32.5455L29.3036 28.2955H32.7143C32.9464 28.2955 33.1518 28.1527 33.2411 27.9384C33.3304 27.733 33.2857 27.483 33.1161 27.3223Z" fill="white"/>
      </g>
      <defs>
         <filter id="filter0_d_17:237" x="0" y="0.724121" width="59" height="58" filterUnits="userSpaceOnUse" color-interpolation-filters="sRGB">
            <feFlood flood-opacity="0" result="BackgroundImageFix"/>
            <feColorMatrix in="SourceAlpha" type="matrix" values="0 0 0 0 0 0 0 0 0 0 0 0 0 0 0 0 0 0 127 0" result="hardAlpha"/>
            <feOffset dy="4"/>
            <feGaussianBlur stdDeviation="2"/>
            <feColorMatrix type="matrix" values="0 0 0 0 0 0 0 0 0 0 0 0 0 0 0 0 0 0 0.25 0"/>
            <feBlend mode="normal" in2="BackgroundImageFix" result="effect1_dropShadow_17:237"/>
            <feBlend mode="normal" in="SourceGraphic" in2="effect1_dropShadow_17:237" result="shape"/>
         </filter>
         <clipPath id="clip0_17:237">
            <rect width="51" height="50" fill="white" transform="translate(4 0.724121)"/>
         </clipPath>
      </defs>
   </symbol>



   <symbol id="road-ico" width="58" height="59" viewBox="0 0 58 59" fill="none"
      xmlns="http://www.w3.org/2000/svg">
      <g clip-path="url(#clip0_17:244)" filter="url(#filter0_d_17:244)">
         <rect x="4" y="0.724121" width="50" height="50" rx="19" fill="#4D8DFF"/>
         <path d="M29.4821 25.367L30.6518 25.9116L32.3929 25.3938V24.1795C32.3929 22.117 30.6518 20.4652 28.5714 20.4652C26.5 20.4652 24.75 22.108 24.75 24.1527V29.6884C24.75 30.1973 24.3393 30.5991 23.8393 30.5991C23.3393 30.5991 22.9286 30.1973 22.9286 29.6884V27.3491H20C20 29.6973 20 29.7241 20 29.7241C20 31.8402 21.7143 33.5545 23.8304 33.5545C25.9286 33.5545 27.6607 31.867 27.6607 29.7777V24.3134C27.6607 23.8134 28.0714 23.4027 28.5714 23.4027C29.0714 23.4027 29.4821 23.8134 29.4821 24.3134V25.367ZM34.2143 27.3491V29.8045C34.2143 30.3045 33.8036 30.7063 33.3036 30.7063C32.8036 30.7063 32.3929 30.3045 32.3929 29.8045V27.3938L30.6518 27.9116L29.4821 27.367V29.7598C29.4821 31.858 31.2054 33.5545 33.3125 33.5545C35.4286 33.5545 37.1429 31.8402 37.1429 29.7241C37.1429 29.7241 37.1429 29.6973 37.1429 27.3491H34.2143Z" fill="white"/>
      </g>
      <defs>
         <filter id="filter0_d_17:244" x="0" y="0.724121" width="58" height="58" filterUnits="userSpaceOnUse" color-interpolation-filters="sRGB">
            <feFlood flood-opacity="0" result="BackgroundImageFix"/>
            <feColorMatrix in="SourceAlpha" type="matrix" values="0 0 0 0 0 0 0 0 0 0 0 0 0 0 0 0 0 0 127 0" result="hardAlpha"/>
            <feOffset dy="4"/>
            <feGaussianBlur stdDeviation="2"/>
            <feColorMatrix type="matrix" values="0 0 0 0 0 0 0 0 0 0 0 0 0 0 0 0 0 0 0.25 0"/>
            <feBlend mode="normal" in2="BackgroundImageFix" result="effect1_dropShadow_17:244"/>
            <feBlend mode="normal" in="SourceGraphic" in2="effect1_dropShadow_17:244" result="shape"/>
         </filter>
         <clipPath id="clip0_17:244">
            <rect width="50" height="50" fill="white" transform="translate(4 0.724121)"/>
         </clipPath>
      </defs>
   </symbol>

   <symbol id="heart-ico" width="58" height="59" viewBox="0 0 58 59" fill="none"
      xmlns="http://www.w3.org/2000/svg">
      <g clip-path="url(#clip0_17:251)" filter="url(#filter0_d_17:251)">
         <rect x="4" y="0.724121" width="50" height="50" rx="19" fill="#740A76"/>
         <path d="M29 33.867C29.1429 33.867 29.2857 33.8134 29.3929 33.7063L34.9554 28.3491C35.0357 28.2688 37 26.4741 37 24.3313C37 21.7152 35.4018 20.1527 32.7321 20.1527C31.1696 20.1527 29.7054 21.3848 29 22.0813C28.2946 21.3848 26.8304 20.1527 25.2679 20.1527C22.5982 20.1527 21 21.7152 21 24.3313C21 26.4741 22.9643 28.2688 23.0357 28.3313L28.6071 33.7063C28.7143 33.8134 28.8571 33.867 29 33.867Z" fill="white"/>
      </g>
      <defs>
         <filter id="filter0_d_17:251" x="0" y="0.724121" width="58" height="58" filterUnits="userSpaceOnUse" color-interpolation-filters="sRGB">
            <feFlood flood-opacity="0" result="BackgroundImageFix"/>
            <feColorMatrix in="SourceAlpha" type="matrix" values="0 0 0 0 0 0 0 0 0 0 0 0 0 0 0 0 0 0 127 0" result="hardAlpha"/>
            <feOffset dy="4"/>
            <feGaussianBlur stdDeviation="2"/>
            <feColorMatrix type="matrix" values="0 0 0 0 0 0 0 0 0 0 0 0 0 0 0 0 0 0 0.25 0"/>
            <feBlend mode="normal" in2="BackgroundImageFix" result="effect1_dropShadow_17:251"/>
            <feBlend mode="normal" in="SourceGraphic" in2="effect1_dropShadow_17:251" result="shape"/>
         </filter>
         <clipPath id="clip0_17:251">
            <rect width="50" height="50" fill="white" transform="translate(4 0.724121)"/>
         </clipPath>
      </defs>
   </symbol>


   <symbol id="clock-ico" width="58" height="59" viewBox="0 0 58 59" fill="none"
      xmlns="http://www.w3.org/2000/svg">
      <g clip-path="url(#clip0_17:258)" filter="url(#filter0_d_17:258)">
         <rect x="4" y="0.724121" width="50" height="50" rx="19" fill="#F03E3D"/>
         <path d="M34.5714 20.1527H35.4286C35.5893 20.1527 35.7143 20.0277 35.7143 19.867V19.2955C35.7143 19.1348 35.5893 19.0098 35.4286 19.0098H22.2857C22.125 19.0098 22 19.1348 22 19.2955V19.867C22 20.0277 22.125 20.1527 22.2857 20.1527H23.1429C23.1429 23.4563 24.7232 25.8491 26.4732 27.0098C24.7232 28.1705 23.1429 30.5634 23.1429 33.867H22.2857C22.125 33.867 22 33.992 22 34.1527V34.7241C22 34.8848 22.125 35.0098 22.2857 35.0098H35.4286C35.5893 35.0098 35.7143 34.8848 35.7143 34.7241V34.1527C35.7143 33.992 35.5893 33.867 35.4286 33.867H34.5714C34.5714 30.5634 32.9911 28.1705 31.2411 27.0098C32.9911 25.8491 34.5714 23.4563 34.5714 20.1527ZM33.4286 20.1527C33.4286 21.4563 33.1339 22.608 32.6696 23.5813H25.0446C24.5804 22.608 24.2857 21.4563 24.2857 20.1527H33.4286ZM32.9196 31.0098H24.7946C25.4554 29.2866 26.6429 28.0634 27.8304 27.5813H29.8839C31.0714 28.0634 32.2589 29.2866 32.9196 31.0098Z" fill="white"/>
      </g>
      <defs>
         <filter id="filter0_d_17:258" x="0" y="0.724121" width="58" height="58" filterUnits="userSpaceOnUse" color-interpolation-filters="sRGB">
            <feFlood flood-opacity="0" result="BackgroundImageFix"/>
            <feColorMatrix in="SourceAlpha" type="matrix" values="0 0 0 0 0 0 0 0 0 0 0 0 0 0 0 0 0 0 127 0" result="hardAlpha"/>
            <feOffset dy="4"/>
            <feGaussianBlur stdDeviation="2"/>
            <feColorMatrix type="matrix" values="0 0 0 0 0 0 0 0 0 0 0 0 0 0 0 0 0 0 0.25 0"/>
            <feBlend mode="normal" in2="BackgroundImageFix" result="effect1_dropShadow_17:258"/>
            <feBlend mode="normal" in="SourceGraphic" in2="effect1_dropShadow_17:258" result="shape"/>
         </filter>
         <clipPath id="clip0_17:258">
            <rect width="50" height="50" fill="white" transform="translate(4 0.724121)"/>
         </clipPath>
      </defs>
   </symbol>





</svg>
